<svg xmlns="http://www.w3.org/2000/svg" xmlns:xlink="http://www.w3.org/1999/xlink" version="1.1" width="1000" height="1000" viewBox="0 0 1000 1000" xml:space="preserve">
<desc>Created with Fabric.js 3.5.0</desc>
<defs>
</defs>
<rect x="0" y="0" width="100%" height="100%" fill="rgba(102,51,102,0)"/>
<g transform="matrix(2.1834 0 0 2.1834 499.9993 499.9993)" id="396457">
<path style="stroke: none; stroke-width: 1; stroke-dasharray: none; stroke-linecap: butt; stroke-dashoffset: 0; stroke-linejoin: miter; stroke-miterlimit: 4; is-custom-font: none; font-file-url: none; fill: rgb(246,235,244); fill-rule: nonzero; opacity: 1;" vector-effect="non-scaling-stroke" transform=" translate(-224, -256)" d="M 400 32 H 48 C 21.5 32 0 53.5 0 80 v 352 c 0 26.5 21.5 48 48 48 h 352 c 26.5 0 48 -21.5 48 -48 V 80 c 0 -26.5 -21.5 -48 -48 -48 z M 127 384.5 c -5.5 9.6 -17.8 12.8 -27.3 7.3 c -9.6 -5.5 -12.8 -17.8 -7.3 -27.3 l 14.3 -24.7 c 16.1 -4.9 29.3 -1.1 39.6 11.4 L 127 384.5 z m 138.9 -53.9 H 84 c -11 0 -20 -9 -20 -20 s 9 -20 20 -20 h 51 l 65.4 -113.2 l -20.5 -35.4 c -5.5 -9.6 -2.2 -21.8 7.3 -27.3 c 9.6 -5.5 21.8 -2.2 27.3 7.3 l 8.9 15.4 l 8.9 -15.4 c 5.5 -9.6 17.8 -12.8 27.3 -7.3 c 9.6 5.5 12.8 17.8 7.3 27.3 l -85.8 148.6 h 62.1 c 20.2 0 31.5 23.7 22.7 40 z m 98.1 0 h -29 l 19.6 33.9 c 5.5 9.6 2.2 21.8 -7.3 27.3 c -9.6 5.5 -21.8 2.2 -27.3 -7.3 c -32.9 -56.9 -57.5 -99.7 -74 -128.1 c -16.7 -29 -4.8 -58 7.1 -67.8 c 13.1 22.7 32.7 56.7 58.9 102 h 52 c 11 0 20 9 20 20 c 0 11.1 -9 20 -20 20 z" stroke-linecap="round"/>
</g>
<g transform="matrix(0.9484 0 0 1.0307 504.9867 496.0167)" id="227157">
<g style="">
		<g transform="matrix(1.4243 0 0 1.4243 -50.0774 -154.204)" id="Vector">
<path style="stroke: none; stroke-width: 1; stroke-dasharray: none; stroke-linecap: butt; stroke-dashoffset: 0; stroke-linejoin: miter; stroke-miterlimit: 4; is-custom-font: none; font-file-url: none; fill: rgb(76,191,166); fill-rule: nonzero; opacity: 1;" transform=" translate(-276.3442, -132.2357)" d="M 455.436 40.3945 H 97.2519 C 74.9211 40.3945 56.8184 58.497 56.8184 80.8276 V 183.644 C 56.8184 205.975 74.9211 224.077 97.2519 224.077 H 455.436 C 477.767 224.077 495.87 205.975 495.87 183.644 V 80.8276 C 495.87 58.497 477.767 40.3945 455.436 40.3945 Z" stroke-linecap="round"/>
</g>
		<g transform="matrix(1.4243 0 0 1.4243 -50.0783 -154.2013)" id="Vector_2">
<path style="stroke: none; stroke-width: 1; stroke-dasharray: none; stroke-linecap: butt; stroke-dashoffset: 0; stroke-linejoin: miter; stroke-miterlimit: 4; is-custom-font: none; font-file-url: none; fill: rgb(72,38,115); fill-rule: nonzero; opacity: 1;" transform=" translate(-276.3437, -132.2377)" d="M 455.436 231.618 H 97.2517 C 84.5327 231.604 72.3384 226.546 63.3448 217.552 C 54.3511 208.559 49.2926 196.365 49.2793 183.646 V 80.8293 C 49.2926 68.1104 54.3511 55.9163 63.3448 46.9227 C 72.3384 37.9292 84.5327 32.8707 97.2517 32.8574 H 455.436 C 468.155 32.8707 480.349 37.9292 489.343 46.9227 C 498.337 55.9163 503.395 68.1104 503.408 80.8293 V 183.646 C 503.395 196.365 498.337 208.559 489.343 217.552 C 480.349 226.546 468.155 231.604 455.436 231.618 Z M 97.2517 47.935 C 88.5305 47.945 80.1694 51.4138 74.0027 57.5805 C 67.8359 63.7472 64.367 72.1082 64.357 80.8293 V 183.646 C 64.367 192.367 67.8359 200.728 74.0027 206.895 C 80.1694 213.061 88.5305 216.53 97.2517 216.54 H 455.436 C 464.157 216.53 472.518 213.061 478.685 206.895 C 484.852 200.728 488.321 192.367 488.331 183.646 V 80.8293 C 488.321 72.1082 484.852 63.7472 478.685 57.5805 C 472.518 51.4138 464.157 47.945 455.436 47.935 H 97.2517 Z" stroke-linecap="round"/>
</g>
		<g transform="matrix(1.4243 0 0 1.4243 -1.1502 -201.0003)" id="Vector_3">
<path style="stroke: none; stroke-width: 1; stroke-dasharray: none; stroke-linecap: butt; stroke-dashoffset: 0; stroke-linejoin: miter; stroke-miterlimit: 4; is-custom-font: none; font-file-url: none; fill: rgb(76,191,166); fill-rule: nonzero; opacity: 1;" transform=" translate(-310.6954, -99.3805)" d="M 489.788 7.53906 H 131.603 C 109.273 7.53906 91.1699 25.6416 91.1699 47.9721 V 150.789 C 91.1699 173.119 109.273 191.222 131.603 191.222 H 489.788 C 512.119 191.222 530.221 173.119 530.221 150.789 V 47.9721 C 530.221 25.6416 512.119 7.53906 489.788 7.53906 Z" stroke-linecap="round"/>
</g>
		<g transform="matrix(1.4243 0 0 1.4243 -1.1412 -201.0012)" id="Vector_5">
<path style="stroke: none; stroke-width: 1; stroke-dasharray: none; stroke-linecap: butt; stroke-dashoffset: 0; stroke-linejoin: miter; stroke-miterlimit: 4; is-custom-font: none; font-file-url: none; fill: rgb(72,38,115); fill-rule: nonzero; opacity: 1;" transform=" translate(-310.702, -99.38)" d="M 489.788 198.76 H 131.603 C 118.882 198.747 106.686 193.687 97.6919 184.69 C 88.6979 175.694 83.6408 163.497 83.6309 150.776 V 47.9718 C 83.6442 35.253 88.7027 23.0589 97.6963 14.0653 C 106.69 5.07174 118.884 0.0133042 131.603 0 L 489.788 0 C 502.509 0.00997814 514.706 5.06694 523.703 14.0609 C 532.699 23.0548 537.759 35.2508 537.773 47.9718 V 150.776 C 537.763 163.499 532.704 175.698 523.707 184.695 C 514.71 193.692 502.511 198.75 489.788 198.76 Z M 131.603 15.0776 C 122.882 15.0876 114.521 18.5564 108.354 24.7231 C 102.187 30.8898 98.7186 39.2508 98.7086 47.9718 V 150.776 C 98.7186 159.497 102.187 167.858 108.354 174.025 C 114.521 180.191 122.882 183.66 131.603 183.67 H 489.788 C 498.511 183.663 506.875 180.196 513.045 174.029 C 519.214 167.862 522.685 159.499 522.695 150.776 V 47.9718 C 522.685 39.2486 519.214 30.8857 513.045 24.7187 C 506.875 18.5516 498.511 15.0842 489.788 15.0776 H 131.603 Z" stroke-linecap="round"/>
</g>
		<g transform="matrix(1.4243 0 0 1.4243 -50.0774 -141.4435)" id="Vector_6">
<path style="stroke: none; stroke-width: 1; stroke-dasharray: none; stroke-linecap: butt; stroke-dashoffset: 0; stroke-linejoin: miter; stroke-miterlimit: 4; is-custom-font: none; font-file-url: none; fill: rgb(237,11,112); fill-rule: nonzero; opacity: 1;" transform=" translate(-276.3442, -141.1947)" d="M 455.436 49.3535 H 97.2519 C 74.9211 49.3535 56.8184 67.456 56.8184 89.7866 V 192.603 C 56.8184 214.934 74.9211 233.036 97.2519 233.036 H 455.436 C 477.767 233.036 495.87 214.934 495.87 192.603 V 89.7866 C 495.87 67.456 477.767 49.3535 455.436 49.3535 Z" stroke-linecap="round"/>
</g>
		<g transform="matrix(1.4243 0 0 1.4243 -50.0783 -141.4437)" id="Vector_8">
<path style="stroke: none; stroke-width: 1; stroke-dasharray: none; stroke-linecap: butt; stroke-dashoffset: 0; stroke-linejoin: miter; stroke-miterlimit: 4; is-custom-font: none; font-file-url: none; fill: rgb(72,38,115); fill-rule: nonzero; opacity: 1;" transform=" translate(-276.3437, -141.1947)" d="M 455.436 240.575 H 97.2517 C 84.5327 240.561 72.3384 235.503 63.3448 226.509 C 54.3511 217.516 49.2926 205.322 49.2793 192.603 V 89.7863 C 49.2926 77.0675 54.3511 64.8734 63.3448 55.8798 C 72.3384 46.8862 84.5327 41.8278 97.2517 41.8145 H 455.436 C 468.155 41.8278 480.349 46.8862 489.343 55.8798 C 498.337 64.8734 503.395 77.0675 503.408 89.7863 V 192.603 C 503.395 205.322 498.337 217.516 489.343 226.509 C 480.349 235.503 468.155 240.561 455.436 240.575 Z M 97.2517 56.892 C 88.5305 56.902 80.1694 60.3709 74.0027 66.5376 C 67.8359 72.7043 64.367 81.0653 64.357 89.7863 V 192.603 C 64.367 201.324 67.8359 209.685 74.0027 215.852 C 80.1694 222.018 88.5305 225.487 97.2517 225.497 H 455.436 C 464.157 225.487 472.518 222.018 478.685 215.852 C 484.852 209.685 488.321 201.324 488.331 192.603 V 89.7863 C 488.321 81.0653 484.852 72.7043 478.685 66.5376 C 472.518 60.3709 464.157 56.902 455.436 56.892 H 97.2517 Z" stroke-linecap="round"/>
</g>
		<g transform="matrix(1.4243 0 0 1.4243 -42.4102 57.8098)" id="Vector_9">
<path style="stroke: none; stroke-width: 1; stroke-dasharray: none; stroke-linecap: butt; stroke-dashoffset: 0; stroke-linejoin: miter; stroke-miterlimit: 4; is-custom-font: none; font-file-url: none; fill: rgb(163,146,185); fill-rule: nonzero; opacity: 1;" transform=" translate(-281.728, -281.0897)" d="M 499.589 94.1465 H 63.867 C 32.758 94.1465 7.53906 119.365 7.53906 150.474 V 411.706 C 7.53906 442.814 32.758 468.033 63.867 468.033 H 499.589 C 530.698 468.033 555.917 442.814 555.917 411.706 V 150.474 C 555.917 119.365 530.698 94.1465 499.589 94.1465 Z" stroke-linecap="round"/>
</g>
		<g transform="matrix(1.4243 0 0 1.4243 -42.4104 65.5399)" id="Vector_11">
<path style="stroke: none; stroke-width: 1; stroke-dasharray: none; stroke-linecap: butt; stroke-dashoffset: 0; stroke-linejoin: miter; stroke-miterlimit: 4; is-custom-font: none; font-file-url: none; fill: rgb(72,38,115); fill-rule: nonzero; opacity: 1;" transform=" translate(-281.728, -286.5171)" d="M 499.589 480.999 H 63.8668 C 46.9366 480.979 30.7053 474.246 18.7326 462.276 C 6.75996 450.305 0.0232761 434.076 0 417.146 L 0 155.901 C 0.0199518 138.969 6.75517 122.736 18.7282 110.763 C 30.7012 98.7903 46.9344 92.0551 63.8668 92.0352 H 499.589 C 516.521 92.0551 532.754 98.7903 544.727 110.763 C 556.7 122.736 563.436 138.969 563.456 155.901 V 417.146 C 563.432 434.076 556.696 450.305 544.723 462.276 C 532.75 474.246 516.519 480.979 499.589 480.999 Z M 63.8668 107.113 C 50.9313 107.126 38.5293 112.271 29.3824 121.417 C 20.2356 130.564 15.0911 142.966 15.0777 155.901 V 417.146 C 15.0911 430.081 20.2356 442.483 29.3824 451.63 C 38.5293 460.776 50.9313 465.921 63.8668 465.934 H 499.589 C 512.524 465.921 524.926 460.776 534.073 451.63 C 543.22 442.483 548.364 430.081 548.378 417.146 V 155.901 C 548.364 142.966 543.22 130.564 534.073 121.417 C 524.926 112.271 512.524 107.126 499.589 107.113 H 63.8668 Z" stroke-linecap="round"/>
</g>
		<g transform="matrix(1.4243 0 0 1.4243 275.176 59.6616)" id="Vector_14">
<path style="stroke: none; stroke-width: 1; stroke-dasharray: none; stroke-linecap: butt; stroke-dashoffset: 0; stroke-linejoin: miter; stroke-miterlimit: 4; is-custom-font: none; font-file-url: none; fill: rgb(163,146,185); fill-rule: nonzero; opacity: 1;" transform=" translate(-503.2955, -280.984)" d="M 556.306 218.902 H 450.285 C 421.438 218.902 398.053 242.287 398.053 271.134 V 290.835 C 398.053 319.682 421.438 343.066 450.285 343.066 H 556.306 C 585.153 343.066 608.538 319.682 608.538 290.835 V 271.134 C 608.538 242.287 585.153 218.902 556.306 218.902 Z" stroke-linecap="round"/>
</g>
		<g transform="matrix(1.4243 0 0 1.4243 283.0364 65.5444)" id="Vector_15">
<path style="stroke: none; stroke-width: 1; stroke-dasharray: none; stroke-linecap: butt; stroke-dashoffset: 0; stroke-linejoin: miter; stroke-miterlimit: 4; is-custom-font: none; font-file-url: none; fill: rgb(72,38,115); fill-rule: nonzero; opacity: 1;" transform=" translate(-510.2185, -286.5185)" d="M 563.229 356.133 H 457.207 C 441.36 356.117 426.167 349.814 414.961 338.609 C 403.756 327.403 397.453 312.21 397.437 296.363 V 276.674 C 397.453 260.827 403.756 245.634 414.961 234.429 C 426.167 223.223 441.36 216.921 457.207 216.904 H 563.229 C 579.076 216.921 594.269 223.223 605.475 234.429 C 616.68 245.634 622.983 260.827 623 276.674 V 296.363 C 622.983 312.21 616.68 327.403 605.475 338.609 C 594.269 349.814 579.076 356.117 563.229 356.133 Z M 457.207 231.982 C 445.358 231.995 433.998 236.708 425.619 245.087 C 417.241 253.465 412.528 264.825 412.514 276.674 V 296.363 C 412.528 308.212 417.241 319.572 425.619 327.951 C 433.998 336.329 445.358 341.042 457.207 341.056 H 563.229 C 575.078 341.042 586.438 336.329 594.817 327.951 C 603.196 319.572 607.909 308.212 607.922 296.363 V 276.674 C 607.909 264.825 603.196 253.465 594.817 245.087 C 586.438 236.708 575.078 231.995 563.229 231.982 H 457.207 Z" stroke-linecap="round"/>
</g>
</g>
</g>
</svg>